<?xml version="1.0" encoding="UTF-8"?>
<svg xmlns="http://www.w3.org/2000/svg" xmlns:xlink="http://www.w3.org/1999/xlink" width="40px" height="40px" viewBox="0 0 40 40" version="1.1">
<g id="surface1">
<path style="fill-rule:nonzero;fill:rgb(12.156863%,21.176471%,25.490196%);fill-opacity:1;stroke-width:2;stroke-linecap:butt;stroke-linejoin:miter;stroke:rgb(94.901961%,69.411765%,21.568627%);stroke-opacity:1;stroke-miterlimit:4;" d="M 33 0.999023 C 50.673047 0.999023 65.000977 15.326953 65.000977 33 C 65.000977 50.673047 50.673047 65.000977 33 65.000977 C 15.326953 65.000977 0.999023 50.673047 0.999023 33 C 0.999023 15.326953 15.326953 0.999023 33 0.999023 Z M 33 19.961133 C 25.800586 19.961133 19.961133 25.800586 19.961133 33 C 19.961133 40.199414 25.800586 46.038867 33 46.038867 C 40.199414 46.038867 46.038867 40.199414 46.038867 33 C 46.038867 25.800586 40.199414 19.961133 33 19.961133 Z M 33 19.961133 " transform="matrix(0.606061,0,0,0.606061,0,0)"/>
</g>
</svg>
