<?xml version="1.0" encoding="UTF-8"?>
<svg xmlns="http://www.w3.org/2000/svg" xmlns:xlink="http://www.w3.org/1999/xlink" width="40px" height="40px" viewBox="0 0 40 40" version="1.1">
<g id="surface1">
<path style="fill-rule:nonzero;fill:rgb(12.156863%,21.176471%,25.490196%);fill-opacity:1;stroke-width:2;stroke-linecap:butt;stroke-linejoin:miter;stroke:rgb(19.215686%,76.470588%,74.117647%);stroke-opacity:1;stroke-miterlimit:4;" d="M 51.11875 1.26875 C 51.63125 1.26875 52.14375 1.4625 52.53125 1.85625 L 62.14375 11.46875 C 62.5375 11.85625 62.73125 12.36875 62.73125 12.88125 C 62.73125 13.39375 62.5375 13.90625 62.14375 14.29375 L 44.44375 32 L 62.14375 49.70625 C 62.5375 50.09375 62.73125 50.60625 62.73125 51.11875 C 62.73125 51.63125 62.5375 52.14375 62.14375 52.53125 L 52.53125 62.14375 C 52.14375 62.5375 51.63125 62.73125 51.11875 62.73125 C 50.5875 62.73125 50.08125 62.51875 49.70625 62.14375 L 32 44.44375 L 14.29375 62.14375 C 13.90625 62.5375 13.39375 62.73125 12.88125 62.73125 C 12.35 62.73125 11.84375 62.51875 11.46875 62.14375 L 1.85625 52.53125 C 1.48125 52.15625 1.26875 51.65 1.26875 51.11875 C 1.26875 50.60625 1.4625 50.09375 1.85625 49.70625 L 19.55625 32 L 1.85625 14.29375 C 1.48125 13.91875 1.26875 13.4125 1.26875 12.88125 C 1.26875 12.36875 1.4625 11.85625 1.85625 11.46875 L 11.46875 1.85625 C 11.85625 1.4625 12.36875 1.26875 12.88125 1.26875 C 13.39375 1.26875 13.90625 1.4625 14.29375 1.85625 L 32 19.55625 L 49.70625 1.85625 C 50.09375 1.4625 50.60625 1.26875 51.11875 1.26875 Z M 51.11875 1.26875 " transform="matrix(0.625,0,0,0.625,0,0)"/>
</g>
</svg>
